<?xml version="1.0" standalone="no"?>
<!DOCTYPE svg PUBLIC "-//W3C//DTD SVG 20010904//EN"
 "http://www.w3.org/TR/2001/REC-SVG-20010904/DTD/svg10.dtd">
<svg version="1.0" xmlns="http://www.w3.org/2000/svg"
 width="1800.000000pt" height="1800.000000pt" viewBox="0 0 1800.000000 1800.000000"
 preserveAspectRatio="xMidYMid meet">
<g transform="translate(0.000000,1800.000000) scale(0.100000,-0.100000)"
fill="#000000" stroke="none">
<path d="M8880 16762 c-113 -55 -196 -143 -459 -484 -36 -46 -78 -99 -95 -119
-17 -19 -49 -57 -71 -84 -22 -27 -47 -55 -55 -64 -9 -9 -33 -38 -55 -66 -22
-27 -44 -55 -50 -61 -5 -6 -28 -33 -50 -60 -22 -27 -68 -78 -102 -114 l-62
-65 -63 1 c-53 0 -72 6 -117 33 -86 52 -157 111 -283 235 -65 64 -121 116
-125 116 -35 -1 -47 -40 -78 -242 -17 -106 -17 -108 4 -151 12 -25 44 -63 72
-87 81 -69 209 -253 209 -302 0 -25 -80 -197 -129 -279 -12 -19 -24 -41 -28
-49 -3 -8 -26 -45 -50 -82 -72 -114 -127 -199 -185 -288 -154 -240 -307 -526
-383 -720 -9 -25 -22 -56 -27 -70 -13 -34 -42 -124 -63 -195 -9 -33 -24 -76
-33 -95 -16 -32 -21 -35 -66 -38 -29 -2 -66 3 -88 12 -21 9 -56 23 -78 31 -22
8 -58 22 -80 30 -105 39 -129 49 -190 78 -92 44 -147 43 -193 -1 -34 -33 -97
-148 -97 -177 0 -8 -6 -41 -14 -73 -51 -200 -64 -546 -27 -718 61 -286 120
-399 223 -426 68 -17 163 8 259 70 211 135 280 159 359 124 25 -11 57 -33 71
-48 24 -27 89 -121 89 -129 0 -2 20 -33 45 -69 25 -37 45 -69 45 -72 0 -3 13
-23 29 -43 15 -20 30 -40 32 -46 2 -5 30 -49 62 -97 112 -171 172 -263 182
-280 42 -69 321 -449 381 -518 57 -66 222 -249 257 -285 52 -53 64 -85 66
-177 1 -42 6 -156 12 -255 5 -98 12 -229 16 -291 6 -114 -2 -192 -33 -317 -25
-100 -69 -250 -86 -295 -5 -14 -20 -56 -33 -95 -26 -77 -50 -141 -84 -225 -13
-30 -30 -73 -38 -95 -25 -62 -51 -120 -111 -245 -227 -471 -576 -836 -884
-926 -29 -9 -87 -18 -129 -21 l-76 -5 -134 66 c-124 61 -215 109 -297 157 -51
29 -81 24 -198 -37 -128 -65 -190 -89 -369 -139 -198 -55 -453 -95 -870 -135
-123 -12 -230 -39 -340 -85 -110 -47 -250 -119 -271 -141 l-25 -24 20 -38 c40
-78 88 -109 231 -147 36 -10 85 -23 110 -30 95 -27 210 -48 490 -90 108 -16
208 -34 340 -61 250 -50 276 -58 432 -133 57 -27 130 -60 164 -74 34 -15 83
-38 109 -52 57 -30 76 -31 92 -6 6 10 27 21 45 24 39 6 77 17 178 51 41 14
109 32 150 40 41 8 111 22 155 30 101 20 276 20 330 1 22 -8 50 -15 61 -15 53
0 289 -131 430 -237 129 -98 254 -223 399 -399 22 -27 54 -64 71 -84 90 -103
282 -366 357 -490 68 -111 165 -304 192 -380 58 -166 91 -275 130 -430 37
-147 45 -179 60 -245 9 -38 22 -95 30 -125 43 -175 70 -343 85 -530 6 -74 13
-146 15 -160 5 -38 -19 -86 -62 -122 -72 -62 -113 -112 -145 -177 -48 -99 -44
-202 12 -312 35 -67 91 -213 135 -349 50 -153 56 -173 110 -375 28 -106 38
-152 45 -200 4 -27 12 -77 18 -110 6 -33 18 -112 26 -175 24 -181 44 -336 61
-452 8 -59 15 -131 15 -161 0 -98 43 -189 108 -227 69 -41 153 -18 205 57 31
45 42 92 57 238 21 204 28 260 39 330 5 39 17 124 26 190 21 158 43 299 57
355 6 25 14 63 18 85 4 22 17 76 30 120 12 44 26 94 31 110 4 17 17 62 29 100
12 39 25 84 30 100 24 82 68 196 116 301 54 119 68 169 69 239 0 100 -42 184
-147 286 -44 44 -80 89 -84 105 -9 34 11 289 32 429 15 94 21 126 59 290 36
157 47 203 60 255 8 30 24 93 35 140 18 74 35 135 70 255 11 37 38 113 49 140
5 11 19 45 31 75 78 196 176 359 359 605 253 338 467 572 649 709 110 83 373
226 415 226 14 0 44 7 67 15 56 20 221 20 325 -1 44 -8 114 -22 155 -30 41 -8
109 -26 150 -40 100 -34 139 -45 177 -51 17 -3 39 -14 49 -24 22 -25 36 -24
90 6 25 14 73 37 107 51 34 15 113 50 175 80 62 30 117 54 122 54 5 0 24 6 42
14 18 8 68 21 111 30 230 47 357 71 485 90 318 49 381 60 492 91 25 7 74 20
110 30 143 38 193 70 235 149 l20 38 -40 34 c-22 18 -43 34 -47 34 -4 0 -44
18 -90 39 -202 95 -307 127 -463 141 -335 31 -597 68 -747 106 -161 40 -185
46 -213 55 -16 6 -43 15 -60 19 -76 21 -272 114 -300 141 -12 12 -88 12 -101
-1 -11 -11 -59 -36 -283 -151 -147 -76 -156 -79 -221 -79 -97 0 -193 32 -345
114 -55 30 -179 133 -256 212 -166 172 -287 344 -407 579 -52 101 -122 255
-122 268 0 7 -6 21 -13 32 -8 11 -16 29 -20 40 -3 11 -15 45 -27 75 -12 30
-25 66 -30 80 -5 14 -25 70 -45 125 -49 138 -69 199 -89 275 -68 254 -75 318
-56 520 5 58 14 204 21 325 6 121 14 227 18 236 3 9 49 63 102 120 153 166
217 242 369 444 119 159 324 455 339 490 2 5 24 38 48 73 23 35 43 65 43 67 0
1 34 53 75 114 41 62 75 114 75 116 0 12 108 165 134 188 54 49 92 60 161 46
64 -13 78 -20 229 -113 247 -152 361 -124 449 109 16 42 35 114 62 230 23 97
23 449 1 572 -43 234 -77 331 -139 391 -54 52 -88 52 -203 -1 -55 -25 -115
-49 -134 -55 -33 -10 -90 -31 -185 -69 -22 -9 -65 -18 -96 -20 -52 -4 -57 -3
-74 24 -10 15 -22 44 -26 63 -18 79 -68 233 -106 320 -8 19 -21 49 -28 65 -39
90 -170 345 -229 445 -48 81 -140 229 -206 330 -27 41 -85 136 -130 210 -45
74 -86 142 -91 150 -5 8 -12 22 -15 30 -4 8 -19 43 -35 77 -48 105 -48 109 9
204 44 75 99 141 167 202 98 87 101 119 48 377 -16 79 -27 100 -49 100 -8 0
-69 -55 -137 -121 -115 -114 -217 -198 -297 -244 -24 -13 -54 -20 -97 -20 -73
0 -75 2 -211 163 -90 108 -268 318 -306 362 -12 14 -50 63 -86 110 -35 47 -86
112 -113 145 -27 33 -65 80 -85 105 -19 25 -70 79 -112 121 -136 135 -251 169
-370 111z m385 -1448 c429 -217 763 -517 1026 -919 301 -460 447 -1028 391
-1525 -16 -143 -56 -324 -88 -398 -8 -18 -14 -39 -14 -47 0 -41 -141 -317
-218 -425 -77 -110 -263 -304 -360 -376 -151 -113 -356 -219 -507 -264 -348
-103 -556 -114 -855 -44 -503 119 -920 444 -1146 896 -20 40 -40 81 -45 90
-16 32 -64 172 -92 268 -73 256 -88 620 -35 890 6 30 14 75 18 100 17 94 79
298 106 352 8 14 14 31 14 37 0 10 33 85 78 181 10 19 35 66 57 105 23 38 44
77 48 85 13 26 31 53 94 145 202 293 499 570 798 748 44 26 87 52 95 57 14 8
115 58 190 93 28 13 63 16 180 14 l145 -2 120 -61z"/>
</g>
</svg>
